<svg width="31" height="31" viewBox="0 0 31 31" fill="none" xmlns="http://www.w3.org/2000/svg">
<path d="M30.7065 29.3135L22.7028 21.4377C24.7987 19.1605 26.0865 16.149 26.0865 12.8351C26.0855 5.746 20.2464 0 13.043 0C5.83966 0 0.000610352 5.746 0.000610352 12.8351C0.000610352 19.9241 5.83966 25.6701 13.043 25.6701C16.1554 25.6701 19.01 24.5936 21.2522 22.8039L29.287 30.7107C29.6785 31.0964 30.3141 31.0964 30.7056 30.7107C31.098 30.3251 31.098 29.6991 30.7065 29.3135ZM13.043 23.6954C6.9482 23.6954 2.00737 18.8331 2.00737 12.8351C2.00737 6.83706 6.9482 1.97475 13.043 1.97475C19.1379 1.97475 24.0787 6.83706 24.0787 12.8351C24.0787 18.8331 19.1379 23.6954 13.043 23.6954Z" fill="#004C3F"/>
</svg>
