<svg width="39" height="45" viewBox="0 0 39 45" fill="none" xmlns="http://www.w3.org/2000/svg">
<path d="M34.0905 8.83668C34.0599 8.61154 33.8651 8.48711 33.7041 8.47344C33.5434 8.45978 30.1418 8.20479 30.1418 8.20479C30.1418 8.20479 27.7794 5.83226 27.5202 5.56972C27.2607 5.30718 26.754 5.38702 26.5574 5.44565C26.5283 5.45428 26.0412 5.6064 25.2353 5.85851C24.446 3.5615 23.0535 1.45042 20.6032 1.45042C20.5357 1.45042 20.466 1.4533 20.3963 1.45725C19.6995 0.52507 18.8363 0.120117 18.0908 0.120117C12.3833 0.120117 9.6565 7.3377 8.80148 11.0057C6.58376 11.7008 5.0081 12.195 4.80688 12.259C3.56897 12.6517 3.52986 12.6913 3.36739 13.8713C3.24474 14.7646 0.00561523 40.1047 0.00561523 40.1047L25.2456 44.8887L38.9216 41.8957C38.9216 41.8957 34.1207 9.06181 34.0905 8.83668ZM23.8402 6.29511C23.2063 6.49363 22.4857 6.71913 21.7046 6.96368C21.7053 6.81155 21.7061 6.66158 21.7061 6.49795C21.7061 5.07018 21.5102 3.92078 21.1959 3.00945C22.4583 3.16985 23.2991 4.62279 23.8402 6.29511ZM19.6298 3.29249C19.9807 4.18224 20.209 5.45895 20.209 7.18198C20.209 7.27009 20.2083 7.35065 20.2075 7.43229C18.8185 7.86745 17.3094 8.34002 15.7966 8.81402C16.646 5.49815 18.238 3.89668 19.6298 3.29249ZM17.934 1.66872C18.1804 1.66872 18.4285 1.75324 18.666 1.91867C16.8369 2.78936 14.8762 4.98243 14.0482 9.36175C12.838 9.74081 11.6552 10.1112 10.5616 10.454C11.5315 7.11365 13.8345 1.66872 17.934 1.66872Z" fill="#95BF46"/>
<path d="M33.7041 8.47344C33.5434 8.45977 30.1418 8.20479 30.1418 8.20479C30.1418 8.20479 27.7794 5.83226 27.5202 5.56972C27.4231 5.4719 27.2923 5.42191 27.1554 5.40033L25.247 44.8883L38.9216 41.8957C38.9216 41.8957 34.1207 9.06181 34.0905 8.83667C34.0599 8.61154 33.8651 8.48711 33.7041 8.47344Z" fill="#5E8E3E"/>
<path d="M20.6032 16.1176L18.917 21.1917C18.917 21.1917 17.4395 20.394 15.6285 20.394C12.9735 20.394 12.8398 22.0796 12.8398 22.5044C12.8398 24.8219 18.8118 25.7098 18.8118 31.1382C18.8118 35.4089 16.134 38.1591 12.5234 38.1591C8.1907 38.1591 5.97511 35.4312 5.97511 35.4312L7.13517 31.554C7.13517 31.554 9.41261 33.532 11.3345 33.532C12.5902 33.532 13.1011 32.5318 13.1011 31.801C13.1011 28.7779 8.20172 28.6431 8.20172 23.6757C8.20172 19.4949 11.1682 15.449 17.1561 15.449C19.4635 15.449 20.6032 16.1176 20.6032 16.1176Z" fill="white"/>
</svg>
